<?xml version="1.0" encoding="UTF-8"?><svg id="a" xmlns="http://www.w3.org/2000/svg" viewBox="0 0 200 155.75"><defs><style>.b{letter-spacing:-.02em;}.c,.d,.e{fill:#fff;}.f{letter-spacing:-.1em;}.g,.h{fill:#4f77a9;}.d{font-family:Horelios-Bold, Horelios;font-size:13.17px;}.i{letter-spacing:-.06em;}.e{stroke:#fff;stroke-miterlimit:10;stroke-width:7px;}.j{letter-spacing:0em;}.h{font-family:EthnocentricRg-Regular, Ethnocentric;font-size:26.1px;}</style></defs><path class="g" d="M145.56,113.97c-2.69,4.15-5.83,8.05-9.42,11.63-13.29,13.29-30.96,20.61-49.76,20.61s-36.47-7.32-49.76-20.61c-9.27-9.27-15.63-20.66-18.63-33.08,6.85,36.01,38.49,63.23,76.5,63.23,28.67,0,53.72-15.49,67.23-38.56l-16.17-3.23Z"/><path class="c" d="M94.34,137.4c-27.92,0-51.34-19.22-57.77-45.14l-14.78-2.95c6.23,29.87,32.76,52.37,64.44,52.37,14.87,0,28.61-4.96,39.64-13.31-9.14,5.72-19.95,9.03-31.54,9.03Z"/><path class="c" d="M146.07,48.41c-10.25-17.96-29.57-30.06-51.73-30.06-19.98,0-37.66,9.85-48.46,24.95l-15.04-3c11.72-18.21,32.17-30.29,55.39-30.29,26.51,0,49.41,15.75,59.83,38.39Z"/><path class="g" d="M171.64,68.4l-15.83-3.16c-2.22-14.77-9.06-28.39-19.82-39.15-13.29-13.29-30.96-20.61-49.76-20.61s-36.47,7.32-49.76,20.61c-.99,.99-1.95,2-2.87,3.04C47.87,11.37,69.78,0,94.34,0c39.8,0,72.63,29.86,77.3,68.4Z"/><text class="h" transform="translate(1.27 59.61) rotate(10.97)"><tspan x="0" y="0">SI P</tspan><tspan class="b" x="69.78" y="0">R</tspan><tspan x="95.86" y="0">OPRE</tspan></text><text class="d" transform="translate(15.35 85.69) rotate(10.97)"><tspan class="f" x="0" y="0">VO</tspan><tspan class="j" x="19.88" y="0">TRE CLE DU P</tspan><tspan class="i" x="109.05" y="0">R</tspan><tspan x="117.25" y="0">OPRE</tspan></text><line class="e" x1="21.79" y1="70.07" x2="173.1" y2="99.06"/></svg>