<?xml version="1.0" encoding="UTF-8"?><svg id="a" xmlns="http://www.w3.org/2000/svg" viewBox="0 0 200 155.8"><defs><style>.b{letter-spacing:0em;}.c,.d{fill:#fff;}.e{letter-spacing:-.1em;}.f,.g{fill:#4f77a9;}.d{font-family:Horelios-Bold, Horelios;font-size:13.2px;}.h{fill:none;stroke:#fff;stroke-miterlimit:10;stroke-width:2px;}.i{letter-spacing:0em;}.j{letter-spacing:0em;}.g{font-family:EthnocentricRg-Regular, Ethnocentric;font-size:26.1px;}</style></defs><path class="f" d="M145.6,114c-2.7,4.2-5.8,8.1-9.4,11.6-13.3,13.3-31,20.6-49.8,20.6s-36.5-7.3-49.8-20.6-15.6-20.7-18.6-33.1c6.8,36,38.5,63.2,76.5,63.2s53.7-15.5,67.2-38.6l-16.2-3.2Z"/><path class="c" d="M94.3,137.4c-27.9,0-51.3-19.2-57.8-45.1l-14.8-2.9c6.2,29.9,32.8,52.4,64.4,52.4s28.6-5,39.6-13.3c-9.1,5.7-20,9-31.5,9Z"/><path class="c" d="M146.1,48.4c-10.2-18-29.6-30.1-51.7-30.1s-37.7,9.8-48.5,25l-15-3c11.7-18.2,32.2-30.3,55.4-30.3s49.4,15.8,59.8,38.4Z"/><path class="f" d="M171.6,68.4l-15.8-3.2c-2.2-14.8-9.1-28.4-19.8-39.1-13.3-13.3-31-20.6-49.8-20.6s-36.5,7.3-49.8,20.6c-1,1-1.9,2-2.9,3C47.9,11.4,69.8,0,94.3,0c39.8,0,72.6,29.9,77.3,68.4Z"/><text class="g" transform="translate(1.3 59.6) rotate(11)"><tspan x="0" y="0">SI P</tspan><tspan class="b" x="69.8" y="0">R</tspan><tspan x="95.9" y="0">OPRE</tspan></text><text class="d" transform="translate(15.4 85.7) rotate(11)"><tspan class="e" x="0" y="0">VO</tspan><tspan class="j" x="19.9" y="0">TRE CLE DU P</tspan><tspan class="i" x="109" y="0">R</tspan><tspan x="117.3" y="0">OPRE</tspan></text><line class="h" x1="18.8" y1="70.1" x2="170.1" y2="99.1"/></svg>